IKResults
version=1
nRows=33
nColumns=24
inDegrees=yes

Units are S.I. units (second, meters, Newtons, ...)
If the header above contains a line with 'inDegrees', this indicates whether rotational values are in degrees (yes) or radians (no).

endheader
time	pelvis_tilt	pelvis_list	pelvis_rotation	pelvis_tx	pelvis_ty	pelvis_tz	hip_flexion_r	hip_adduction_r	hip_rotation_r	knee_angle_r	ankle_angle_r	subtalar_angle_r	mtp_angle_r	hip_flexion_l	hip_adduction_l	hip_rotation_l	knee_angle_l	ankle_angle_l	subtalar_angle_l	mtp_angle_l	lumbar_extension	lumbar_bending	lumbar_rotation
5.900000	13.894975	2.055313	-180.070562	0.296270	0.651754	-1.208635	62.272623	-26.598573	-18.604545	-83.847861	29.577372	6.976520	0.000000	65.062755	-30.269516	-13.783095	-84.059958	29.552186	14.192917	0.000000	-14.427444	2.030820	3.075828
5.905000	13.883727	2.079823	-180.092018	0.297300	0.646732	-1.208699	63.000267	-26.808990	-18.377262	-84.934004	29.971625	7.014802	0.000000	65.850641	-30.503405	-13.418293	-85.124756	29.961057	14.311311	0.000000	-14.597378	2.094251	3.047043
5.910000	13.862362	2.095189	-180.117045	0.298288	0.641725	-1.208683	63.702830	-27.025394	-18.128979	-85.989156	30.389647	7.121327	0.000000	66.611764	-30.724009	-13.072444	-86.186653	30.367911	14.419405	0.000000	-14.779761	2.048420	3.232667
5.915000	13.840322	2.101151	-180.127500	0.299261	0.636693	-1.208789	64.391558	-27.268992	-17.893533	-87.030456	30.826167	7.288726	0.000000	67.362392	-30.931832	-12.721645	-87.193689	30.730526	14.552140	0.000000	-14.947577	2.109320	3.114732
5.920000	13.800624	2.113728	-180.137090	0.300189	0.631679	-1.208815	65.060870	-27.503260	-17.648535	-88.060460	31.217026	7.446697	0.000000	68.095622	-31.126382	-12.352674	-88.207710	31.135231	14.693372	0.000000	-15.129314	2.127809	3.150962
5.925000	13.794853	2.137885	-180.169009	0.301076	0.626649	-1.208834	65.775445	-27.714473	-17.406294	-89.091685	31.609690	7.544482	0.000000	68.866402	-31.355603	-11.989758	-89.222200	31.538794	14.847784	0.000000	-15.268910	2.115701	3.303085
5.930000	13.757324	2.150867	-180.197711	0.301910	0.621632	-1.208822	66.478245	-27.958103	-17.162347	-90.148336	31.981356	7.638259	0.000000	69.611869	-31.572625	-11.626432	-90.259867	31.945278	14.983777	0.000000	-15.430112	2.190302	3.250162
5.935000	13.746894	2.174225	-180.226716	0.302709	0.616589	-1.208797	67.194937	-28.186115	-16.922003	-91.178312	32.347001	7.737824	0.000000	70.396982	-31.799812	-11.259522	-91.309556	32.346188	15.142685	0.000000	-15.566987	2.214651	3.286602
5.940000	13.729835	2.188153	-180.223685	0.303426	0.611637	-1.208767	67.872774	-28.432354	-16.689194	-92.174409	32.683764	7.841797	0.000000	71.143271	-31.985042	-10.897909	-92.277171	32.706235	15.305152	0.000000	-15.708983	2.254682	3.224881
5.945000	13.678655	2.198299	-180.250511	0.304217	0.606572	-1.208761	68.541418	-28.642553	-16.408918	-93.168186	33.044029	7.992381	0.000000	71.868482	-32.186070	-10.536655	-93.278518	33.085193	15.407188	0.000000	-15.877466	2.246213	3.311926
5.950000	13.645966	2.232352	-180.273851	0.304928	0.601570	-1.208785	69.196394	-28.841789	-16.179500	-94.136599	33.402828	8.136742	0.000000	72.623849	-32.409111	-10.165316	-94.292041	33.455524	15.521911	0.000000	-16.012425	2.268509	3.353609
5.955000	13.617267	2.257344	-180.300101	0.305629	0.596615	-1.208759	69.868782	-29.051654	-15.936991	-95.114322	33.756360	8.275531	0.000000	73.359405	-32.593986	-9.768813	-95.236254	33.816731	15.625322	0.000000	-16.135981	2.282563	3.431634
5.960000	13.573503	2.282240	-180.341646	0.306258	0.591628	-1.208742	70.534425	-29.259550	-15.707080	-96.109047	34.090999	8.311003	0.000000	74.102491	-32.820836	-9.431399	-96.333237	34.198734	15.641697	0.000000	-16.265223	2.293096	3.523614
5.965000	13.530600	2.265874	-180.354916	0.306912	0.586752	-1.208729	71.200236	-29.501328	-15.418404	-97.062461	34.417541	8.423073	0.000000	74.785406	-32.982296	-9.081583	-97.242660	34.504572	15.764144	0.000000	-16.399742	2.279524	3.559080
5.970000	13.473883	2.256997	-180.349543	0.307535	0.581871	-1.208740	71.830215	-29.745182	-15.143256	-98.001322	34.756157	8.552452	0.000000	75.464140	-33.143549	-8.748961	-98.189582	34.890999	15.927959	0.000000	-16.557371	2.288502	3.531560
5.975000	13.397930	2.233503	-180.322549	0.308061	0.577064	-1.208797	72.437956	-30.019231	-14.861350	-98.937916	35.085752	8.738214	0.000000	76.112167	-33.315409	-8.449370	-99.118308	35.217285	16.136343	0.000000	-16.720970	2.274127	3.486627
5.980000	13.313614	2.225975	-180.329225	0.308445	0.572283	-1.208810	73.029160	-30.259295	-14.572306	-99.866599	35.427351	8.979178	0.000000	76.715954	-33.553544	-8.183651	-100.248693	35.777413	16.473510	0.000000	-16.883796	2.212189	3.632254
5.985000	13.100229	2.224531	-180.324208	0.309224	0.567386	-1.208595	73.575199	-30.524116	-14.269940	-100.834243	35.735815	9.069041	0.000000	77.324809	-33.691560	-7.785825	-101.009066	35.875679	16.469205	0.000000	-17.063820	1.836651	4.721405
5.990000	13.003167	2.236188	-180.320209	0.309532	0.562675	-1.208547	74.183333	-30.814070	-14.197878	-101.852887	35.709264	8.523941	0.000000	77.930841	-33.907842	-7.479737	-102.086505	36.341583	16.739823	0.000000	-17.224494	1.854053	4.759881
5.995000	13.017053	2.197603	-180.295119	0.309653	0.558216	-1.208675	74.814433	-31.071069	-13.917708	-102.702325	36.012363	8.657768	0.000000	78.572072	-34.073962	-7.204370	-102.898907	36.613285	16.956091	0.000000	-17.418703	2.238330	3.629039
6.000000	12.934047	2.195924	-180.297772	0.310061	0.553621	-1.208649	75.385453	-31.303411	-13.637548	-103.566033	36.308742	8.868524	0.000000	79.169342	-34.234284	-6.881462	-103.736114	36.947711	17.081411	0.000000	-17.556794	2.247712	3.711370
6.005000	12.833788	2.184332	-180.291354	0.310464	0.549091	-1.208651	75.952935	-31.527804	-13.332987	-104.436525	36.582742	9.055656	0.000000	79.777434	-34.409379	-6.534142	-104.629573	37.220742	17.319531	0.000000	-17.725951	2.226433	3.744061
6.010000	12.746562	2.220672	-180.323793	0.310765	0.544588	-1.208676	76.501561	-31.712775	-13.097777	-105.289464	36.898050	9.242661	0.000000	80.408389	-34.615116	-6.141603	-105.487857	37.524791	17.491823	0.000000	-17.855901	2.267210	3.834528
6.015000	12.619856	2.266500	-180.324748	0.311061	0.540212	-1.208778	76.975166	-31.892111	-12.876490	-106.123002	37.190015	9.396911	0.000000	81.004765	-34.804395	-5.736372	-106.299862	37.794385	17.664077	0.000000	-18.039532	2.307232	3.905286
6.020000	12.542522	2.258969	-180.301882	0.311309	0.535800	-1.208745	77.528299	-32.135302	-12.597929	-106.941426	37.430090	9.586501	0.000000	81.593198	-34.931006	-5.426441	-107.069317	38.032327	17.768471	0.000000	-18.169124	2.284127	3.979069
6.025000	12.443623	2.250539	-180.262878	0.311552	0.531511	-1.208779	78.048098	-32.370738	-12.324785	-107.744354	37.687209	9.711058	0.000000	82.172582	-35.038026	-5.066374	-107.860695	38.269652	17.942680	0.000000	-18.313354	2.347653	3.847742
6.030000	12.348448	2.254036	-180.265202	0.311804	0.527122	-1.208751	78.594757	-32.570780	-12.033659	-108.546483	37.927399	9.885044	0.000000	82.756716	-35.194791	-4.729791	-108.643382	38.520156	18.119686	0.000000	-18.466775	2.315694	3.992334
6.035000	12.265369	2.270975	-180.262902	0.312066	0.522856	-1.208750	79.133014	-32.760784	-11.772137	-109.333005	38.158607	10.018882	0.000000	83.366178	-35.332310	-4.348337	-109.414176	38.744647	18.265480	0.000000	-18.592792	2.379634	3.928470
6.040000	12.023004	2.301391	-180.271026	0.312520	0.518435	-1.208573	79.563863	-32.946270	-11.472397	-110.167806	38.350672	10.050940	0.000000	83.884994	-35.461249	-3.922671	-110.260409	39.000660	18.308136	0.000000	-18.772266	2.013073	5.052510
6.045000	11.928042	2.308635	-180.292844	0.312691	0.514263	-1.208534	80.085306	-33.114938	-11.182126	-110.934376	38.553653	10.187038	0.000000	84.458581	-35.621758	-3.559127	-111.032816	39.199233	18.494354	0.000000	-18.903862	2.039437	5.089410
6.050000	11.982430	2.285397	-180.287999	0.312671	0.510340	-1.208652	80.691200	-33.289526	-10.896582	-111.620837	38.787410	10.499409	0.000000	85.076239	-35.744215	-3.264221	-111.692190	39.401817	18.685064	0.000000	-19.002287	2.411390	4.083373
6.055000	11.902631	2.258858	-180.265631	0.312865	0.506267	-1.208635	81.219705	-33.476307	-10.549830	-112.345395	39.033677	10.706219	0.000000	85.618211	-35.842869	-2.956509	-112.401736	39.594094	18.805529	0.000000	-19.103255	2.398095	4.080383
6.060000	11.815875	2.237061	-180.235219	0.313037	0.502282	-1.208580	81.742078	-33.673125	-10.218172	-113.059052	39.263537	10.827805	0.000000	86.148776	-35.925821	-2.644920	-113.094915	39.787307	18.915681	0.000000	-19.209318	2.395146	4.099150
